<svg xmlns="http://www.w3.org/2000/svg" width="530" height="40">
  <rect x="0" y="0" width="40" height="40" rx="4" fill="#32221a"/>
  <rect x="42" y="0" width="40" height="40" rx="4" fill="#cfc1a9"/>
  <rect x="84" y="0" width="24" height="40" rx="4" fill="#cfc1a9"/>
  <rect x="114" y="0" width="24" height="40" rx="4" fill="#35241c"/>
  <rect x="140" y="0" width="24" height="40" rx="4" fill="#c2562d"/>
  <rect x="166" y="0" width="24" height="40" rx="4" fill="#96a65e"/>
  <rect x="192" y="0" width="24" height="40" rx="4" fill="#d29b5a"/>
  <rect x="218" y="0" width="24" height="40" rx="4" fill="#3b8e8c"/>
  <rect x="244" y="0" width="24" height="40" rx="4" fill="#c47e5b"/>
  <rect x="270" y="0" width="24" height="40" rx="4" fill="#639a90"/>
  <rect x="296" y="0" width="24" height="40" rx="4" fill="#cfc1a9"/>
  <rect x="322" y="0" width="24" height="40" rx="4" fill="#564a45"/>
  <rect x="348" y="0" width="24" height="40" rx="4" fill="#c2562d"/>
  <rect x="374" y="0" width="24" height="40" rx="4" fill="#96a65e"/>
  <rect x="400" y="0" width="24" height="40" rx="4" fill="#d29b5a"/>
  <rect x="426" y="0" width="24" height="40" rx="4" fill="#3b8e8c"/>
  <rect x="452" y="0" width="24" height="40" rx="4" fill="#c47e5b"/>
  <rect x="478" y="0" width="24" height="40" rx="4" fill="#639a90"/>
  <rect x="504" y="0" width="24" height="40" rx="4" fill="#cfc1a9"/>
</svg>
