<svg xmlns="http://www.w3.org/2000/svg" width="530" height="40">
  <rect x="0" y="0" width="40" height="40" rx="4" fill="#1e1e2e"/>
  <rect x="42" y="0" width="40" height="40" rx="4" fill="#cdd6f4"/>
  <rect x="84" y="0" width="24" height="40" rx="4" fill="#f5e0dc"/>
  <rect x="114" y="0" width="24" height="40" rx="4" fill="#45475a"/>
  <rect x="140" y="0" width="24" height="40" rx="4" fill="#f38ba8"/>
  <rect x="166" y="0" width="24" height="40" rx="4" fill="#a6e3a1"/>
  <rect x="192" y="0" width="24" height="40" rx="4" fill="#f9e2af"/>
  <rect x="218" y="0" width="24" height="40" rx="4" fill="#89b4fa"/>
  <rect x="244" y="0" width="24" height="40" rx="4" fill="#f5c2e7"/>
  <rect x="270" y="0" width="24" height="40" rx="4" fill="#94e2d5"/>
  <rect x="296" y="0" width="24" height="40" rx="4" fill="#a6adc8"/>
  <rect x="322" y="0" width="24" height="40" rx="4" fill="#585b70"/>
  <rect x="348" y="0" width="24" height="40" rx="4" fill="#f37799"/>
  <rect x="374" y="0" width="24" height="40" rx="4" fill="#89d88b"/>
  <rect x="400" y="0" width="24" height="40" rx="4" fill="#ebd391"/>
  <rect x="426" y="0" width="24" height="40" rx="4" fill="#74a8fc"/>
  <rect x="452" y="0" width="24" height="40" rx="4" fill="#f2aede"/>
  <rect x="478" y="0" width="24" height="40" rx="4" fill="#6bd7ca"/>
  <rect x="504" y="0" width="24" height="40" rx="4" fill="#bac2de"/>
</svg>
