<svg xmlns="http://www.w3.org/2000/svg" width="530" height="40">
  <rect x="0" y="0" width="40" height="40" rx="4" fill="#0f191c"/>
  <rect x="42" y="0" width="40" height="40" rx="4" fill="#426644"/>
  <rect x="84" y="0" width="24" height="40" rx="4" fill="#384545"/>
  <rect x="114" y="0" width="24" height="40" rx="4" fill="#0f191c"/>
  <rect x="140" y="0" width="24" height="40" rx="4" fill="#23755a"/>
  <rect x="166" y="0" width="24" height="40" rx="4" fill="#82d967"/>
  <rect x="192" y="0" width="24" height="40" rx="4" fill="#ffd700"/>
  <rect x="218" y="0" width="24" height="40" rx="4" fill="#3f5242"/>
  <rect x="244" y="0" width="24" height="40" rx="4" fill="#409931"/>
  <rect x="270" y="0" width="24" height="40" rx="4" fill="#50b45a"/>
  <rect x="296" y="0" width="24" height="40" rx="4" fill="#507350"/>
  <rect x="322" y="0" width="24" height="40" rx="4" fill="#688060"/>
  <rect x="348" y="0" width="24" height="40" rx="4" fill="#2fc079"/>
  <rect x="374" y="0" width="24" height="40" rx="4" fill="#90d762"/>
  <rect x="400" y="0" width="24" height="40" rx="4" fill="#faff00"/>
  <rect x="426" y="0" width="24" height="40" rx="4" fill="#4f7e7e"/>
  <rect x="452" y="0" width="24" height="40" rx="4" fill="#11ff25"/>
  <rect x="478" y="0" width="24" height="40" rx="4" fill="#c1ff8a"/>
  <rect x="504" y="0" width="24" height="40" rx="4" fill="#678c61"/>
</svg>
