<svg xmlns="http://www.w3.org/2000/svg" width="530" height="40">
  <rect x="0" y="0" width="40" height="40" rx="4" fill="#1d1908"/>
  <rect x="42" y="0" width="40" height="40" rx="4" fill="#cac296"/>
  <rect x="84" y="0" width="24" height="40" rx="4" fill="#d3ba30"/>
  <rect x="114" y="0" width="24" height="40" rx="4" fill="#000000"/>
  <rect x="140" y="0" width="24" height="40" rx="4" fill="#b64c00"/>
  <rect x="166" y="0" width="24" height="40" rx="4" fill="#7c8b16"/>
  <rect x="192" y="0" width="24" height="40" rx="4" fill="#d3bd26"/>
  <rect x="218" y="0" width="24" height="40" rx="4" fill="#616bb0"/>
  <rect x="244" y="0" width="24" height="40" rx="4" fill="#8c5a90"/>
  <rect x="270" y="0" width="24" height="40" rx="4" fill="#916c25"/>
  <rect x="296" y="0" width="24" height="40" rx="4" fill="#cac29a"/>
  <rect x="322" y="0" width="24" height="40" rx="4" fill="#5e5219"/>
  <rect x="348" y="0" width="24" height="40" rx="4" fill="#ff9149"/>
  <rect x="374" y="0" width="24" height="40" rx="4" fill="#b2ca3b"/>
  <rect x="400" y="0" width="24" height="40" rx="4" fill="#ffe54a"/>
  <rect x="426" y="0" width="24" height="40" rx="4" fill="#acb8ff"/>
  <rect x="452" y="0" width="24" height="40" rx="4" fill="#ffa0ff"/>
  <rect x="478" y="0" width="24" height="40" rx="4" fill="#ffbc51"/>
  <rect x="504" y="0" width="24" height="40" rx="4" fill="#fed698"/>
</svg>
