<svg xmlns="http://www.w3.org/2000/svg" width="530" height="40">
  <rect x="0" y="0" width="40" height="40" rx="4" fill="#052454"/>
  <rect x="42" y="0" width="40" height="40" rx="4" fill="#f6f6f7"/>
  <rect x="84" y="0" width="24" height="40" rx="4" fill="#f6f6f7"/>
  <rect x="114" y="0" width="24" height="40" rx="4" fill="#000000"/>
  <rect x="140" y="0" width="24" height="40" rx="4" fill="#981a22"/>
  <rect x="166" y="0" width="24" height="40" rx="4" fill="#098003"/>
  <rect x="192" y="0" width="24" height="40" rx="4" fill="#c4a000"/>
  <rect x="218" y="0" width="24" height="40" rx="4" fill="#4140c3"/>
  <rect x="244" y="0" width="24" height="40" rx="4" fill="#d33682"/>
  <rect x="270" y="0" width="24" height="40" rx="4" fill="#0e807f"/>
  <rect x="296" y="0" width="24" height="40" rx="4" fill="#7f7c7f"/>
  <rect x="322" y="0" width="24" height="40" rx="4" fill="#808080"/>
  <rect x="348" y="0" width="24" height="40" rx="4" fill="#ef2929"/>
  <rect x="374" y="0" width="24" height="40" rx="4" fill="#1cfe3c"/>
  <rect x="400" y="0" width="24" height="40" rx="4" fill="#fefe45"/>
  <rect x="426" y="0" width="24" height="40" rx="4" fill="#268ad2"/>
  <rect x="452" y="0" width="24" height="40" rx="4" fill="#fe13fa"/>
  <rect x="478" y="0" width="24" height="40" rx="4" fill="#29fffe"/>
  <rect x="504" y="0" width="24" height="40" rx="4" fill="#c2c1c3"/>
</svg>
