<svg xmlns="http://www.w3.org/2000/svg" width="530" height="40">
  <rect x="0" y="0" width="40" height="40" rx="4" fill="#7a251e"/>
  <rect x="42" y="0" width="40" height="40" rx="4" fill="#d7c9a7"/>
  <rect x="84" y="0" width="24" height="40" rx="4" fill="#ffffff"/>
  <rect x="114" y="0" width="24" height="40" rx="4" fill="#000000"/>
  <rect x="140" y="0" width="24" height="40" rx="4" fill="#ff3f00"/>
  <rect x="166" y="0" width="24" height="40" rx="4" fill="#00bb00"/>
  <rect x="192" y="0" width="24" height="40" rx="4" fill="#e7b000"/>
  <rect x="218" y="0" width="24" height="40" rx="4" fill="#0072ff"/>
  <rect x="244" y="0" width="24" height="40" rx="4" fill="#bb00bb"/>
  <rect x="270" y="0" width="24" height="40" rx="4" fill="#00bbbb"/>
  <rect x="296" y="0" width="24" height="40" rx="4" fill="#bbbbbb"/>
  <rect x="322" y="0" width="24" height="40" rx="4" fill="#6e6e6e"/>
  <rect x="348" y="0" width="24" height="40" rx="4" fill="#d41a1a"/>
  <rect x="374" y="0" width="24" height="40" rx="4" fill="#00bb00"/>
  <rect x="400" y="0" width="24" height="40" rx="4" fill="#e7b000"/>
  <rect x="426" y="0" width="24" height="40" rx="4" fill="#0072ae"/>
  <rect x="452" y="0" width="24" height="40" rx="4" fill="#ff55ff"/>
  <rect x="478" y="0" width="24" height="40" rx="4" fill="#55ffff"/>
  <rect x="504" y="0" width="24" height="40" rx="4" fill="#ffffff"/>
</svg>
