<svg xmlns="http://www.w3.org/2000/svg" width="530" height="40">
  <rect x="0" y="0" width="40" height="40" rx="4" fill="#1e1d40"/>
  <rect x="42" y="0" width="40" height="40" rx="4" fill="#ffffff"/>
  <rect x="84" y="0" width="24" height="40" rx="4" fill="#fad000"/>
  <rect x="114" y="0" width="24" height="40" rx="4" fill="#000000"/>
  <rect x="140" y="0" width="24" height="40" rx="4" fill="#d90429"/>
  <rect x="166" y="0" width="24" height="40" rx="4" fill="#3ad900"/>
  <rect x="192" y="0" width="24" height="40" rx="4" fill="#ffe700"/>
  <rect x="218" y="0" width="24" height="40" rx="4" fill="#6943ff"/>
  <rect x="244" y="0" width="24" height="40" rx="4" fill="#ff2c70"/>
  <rect x="270" y="0" width="24" height="40" rx="4" fill="#00c5c7"/>
  <rect x="296" y="0" width="24" height="40" rx="4" fill="#c7c7c7"/>
  <rect x="322" y="0" width="24" height="40" rx="4" fill="#686868"/>
  <rect x="348" y="0" width="24" height="40" rx="4" fill="#f92a1c"/>
  <rect x="374" y="0" width="24" height="40" rx="4" fill="#43d426"/>
  <rect x="400" y="0" width="24" height="40" rx="4" fill="#f1d000"/>
  <rect x="426" y="0" width="24" height="40" rx="4" fill="#6871ff"/>
  <rect x="452" y="0" width="24" height="40" rx="4" fill="#ff77ff"/>
  <rect x="478" y="0" width="24" height="40" rx="4" fill="#79e8fb"/>
  <rect x="504" y="0" width="24" height="40" rx="4" fill="#ffffff"/>
</svg>
